# xmcd
#
# Track frame offsets: 
#        150
#        10067
#        20813
#        32849
#        44579
#        62009
#        76884
#        90118
#        100227
#        117579
#        130253
#        142648
#        151454
#        164910
#        176917
#        188056
#        200549
#        214665
#        227133
#        241600
#
# Disc length: 3405 seconds
#
# Revision: 3
# Processed by: cddbd v1.5.2PL0 Copyright (c) Steve Scherf et al.
# Submitted via: ExactAudioCopy v1.0b1
#
DISCID=0c0d4b14
DTITLE=Lynn Anderson - Rose Garden
DYEAR=1999
DGENRE=Country
TTITLE0=What A Man My Man Is
TTITLE1=Silver Threads and Golden Needles
TTITLE2=How Can I Unlove You
TTITLE3=You're My Man
TTITLE4=Close To You
TTITLE5=We've Only Just Begun
TTITLE6=Top Of The World
TTITLE7=Fool Me
TTITLE8=Midnight Train To Georgia
TTITLE9=It Must Be Love
TTITLE10=Listen To A Country Song
TTITLE11=Ride Ride Ride
TTITLE12=Keep Me In Mind
TTITLE13=You Don't Have To Say You Love Me
TTITLE14=Even Cowgirls Get The Blues
TTITLE15=I Never Loved Anyone Before
TTITLE16=Where's The Fire
TTITLE17=Rose Garden
TTITLE18=Cry
TTITLE19=Two Doors Down
EXTD=
EXTT0=
EXTT1=
EXTT2=
EXTT3=
EXTT4=
EXTT5=
EXTT6=
EXTT7=
EXTT8=
EXTT9=
EXTT10=
EXTT11=
EXTT12=
EXTT13=
EXTT14=
EXTT15=
EXTT16=
EXTT17=
EXTT18=
EXTT19=
PLAYORDER=
